<svg width="36" height="36" viewBox="0 0 36 36" fill="none" xmlns="http://www.w3.org/2000/svg">
<path d="M27.75 22.5V22.5V17.9074C27.7493 16.5398 27.2057 15.2284 26.2387 14.2613C25.2717 13.2944 23.9605 12.7508 22.593 12.75L27.75 22.5ZM27.75 22.5C27.7501 24.9051 26.8613 27.2253 25.2544 29.0148C23.8353 30.5951 21.9445 31.663 19.875 32.0685V22.5C19.875 22.0027 19.6775 21.5258 19.3258 21.1742C18.9742 20.8225 18.4973 20.625 18 20.625C17.5027 20.625 17.0258 20.8225 16.6742 21.1742C16.3225 21.5258 16.125 22.0027 16.125 22.5V32.0685M27.75 22.5L16.125 32.0685M16.125 32.0685C14.0555 31.663 12.1647 30.5951 10.7456 29.0148C9.13872 27.2253 8.2499 24.9051 8.25 22.5V22.5L8.25 17.9074C8.25 17.9073 8.25 17.9071 8.25 17.907C8.25079 16.5395 8.79437 15.2283 9.76133 14.2613C10.7283 13.2944 12.0395 12.7508 13.407 12.75C13.4071 12.75 13.4071 12.75 13.4072 12.75H22.5928L16.125 32.0685Z" stroke="#39FF14" stroke-width="1.5"/>
<path d="M28.5 22.125V19.875H33C33.2984 19.875 33.5845 19.9935 33.7955 20.2045C34.0065 20.4155 34.125 20.7016 34.125 21C34.125 21.2984 34.0065 21.5845 33.7955 21.7955C33.5845 22.0065 33.2984 22.125 33 22.125H28.5ZM26.244 29.004C26.709 28.4145 27.114 27.774 27.4455 27.09L31.2525 28.995C31.392 29.0563 31.5176 29.1454 31.6217 29.2568C31.7258 29.3681 31.8061 29.4995 31.8579 29.6428C31.9097 29.7862 31.9317 29.9386 31.9228 30.0907C31.9139 30.2429 31.8741 30.3917 31.806 30.528C31.7378 30.6643 31.6427 30.7854 31.5263 30.8838C31.4099 30.9822 31.2748 31.056 31.129 31.1006C30.9833 31.1452 30.83 31.1597 30.6784 31.1433C30.5269 31.1269 30.3803 31.0798 30.2475 31.005L26.244 29.004ZM8.5545 27.09C8.8875 27.774 9.288 28.412 9.756 29.004L5.7525 31.0065C5.48588 31.137 5.17848 31.1569 4.89729 31.0618C4.61609 30.9666 4.38389 30.7642 4.25129 30.4986C4.1187 30.233 4.09645 29.9258 4.18939 29.6439C4.28234 29.3619 4.48295 29.1282 4.7475 28.9935L8.5545 27.09ZM7.5 19.875H3C2.70163 19.875 2.41548 19.9935 2.2045 20.2045C1.99353 20.4155 1.875 20.7016 1.875 21C1.875 21.2984 1.99353 21.5845 2.2045 21.7955C2.41548 22.0065 2.70163 22.125 3 22.125H7.5V19.875ZM26.031 13.1025L30.246 10.9935C30.3785 10.9229 30.5238 10.8795 30.6734 10.8659C30.8229 10.8524 30.9737 10.8689 31.1168 10.9145C31.2598 10.9601 31.3923 11.0339 31.5064 11.1315C31.6205 11.2292 31.7139 11.3486 31.7811 11.4829C31.8483 11.6172 31.8879 11.7636 31.8977 11.9135C31.9074 12.0633 31.887 12.2136 31.8378 12.3554C31.7885 12.4973 31.7113 12.6278 31.6108 12.7394C31.5103 12.851 31.3885 12.9413 31.2525 13.005L27.63 14.82C27.2155 14.1485 26.6727 13.5654 26.0325 13.104M9.9705 13.1025C9.33 13.5615 8.7855 14.145 8.37 14.8185L4.7475 13.005C4.49153 12.8656 4.29967 12.6323 4.21232 12.3542C4.12498 12.0761 4.14897 11.775 4.27924 11.5142C4.40951 11.2535 4.6359 11.0535 4.91071 10.9564C5.18553 10.8592 5.48731 10.8725 5.7525 10.9935L9.9705 13.1025ZM24.75 12.405V11.25C24.75 9.45979 24.0388 7.7429 22.773 6.47703C21.5071 5.21116 19.7902 4.5 18 4.5C16.2098 4.5 14.4929 5.21116 13.227 6.47703C11.9612 7.7429 11.25 9.45979 11.25 11.25V12.405C11.937 12.1351 12.6689 11.9977 13.407 12H22.593C23.355 12 24.0825 12.144 24.75 12.405Z" fill="white"/>
<path d="M9.564 2.37599C9.39852 2.62424 9.33843 2.92806 9.39694 3.22061C9.45545 3.51316 9.62777 3.77049 9.876 3.93599L13.416 6.2955C14.023 5.73318 14.7282 5.28727 15.4965 4.97999L11.124 2.06399C10.8758 1.89852 10.5719 1.83843 10.2794 1.89694C9.98684 1.95545 9.72951 2.12777 9.564 2.37599ZM22.584 6.2955C21.977 5.73318 21.2718 5.28727 20.5035 4.97999L24.876 2.06399C24.9989 1.98011 25.1372 1.92143 25.2829 1.89136C25.4286 1.86128 25.5788 1.86041 25.7249 1.88878C25.8709 1.91716 26.0099 1.97422 26.1337 2.05667C26.2576 2.13911 26.3638 2.24531 26.4464 2.3691C26.5289 2.49289 26.586 2.63182 26.6145 2.77785C26.643 2.92387 26.6422 3.0741 26.6122 3.21983C26.5822 3.36555 26.5236 3.50388 26.4398 3.62682C26.356 3.74975 26.2487 3.85483 26.124 3.93599L22.584 6.2955Z" fill="white"/>
<path fill-rule="evenodd" clip-rule="evenodd" d="M18 21.375C18.2984 21.375 18.5845 21.4935 18.7955 21.7045C19.0065 21.9155 19.125 22.2016 19.125 22.5V33H16.875V22.5C16.875 22.2016 16.9935 21.9155 17.2045 21.7045C17.4155 21.4935 17.7016 21.375 18 21.375Z" fill="#2C312B"/>
</svg>
