<svg width="146" height="92" viewBox="0 0 146 92" fill="none" xmlns="http://www.w3.org/2000/svg">
<path opacity="0.4" d="M100.9 0H45.1C0.899994 0 0.899994 23.5 0.899994 44.2V62.1C0.899994 64.3 1.89999 66.3 3.59999 67.6C5.29999 68.9 7.6 69.4 9.7 68.8C14.2 67.6 19.8 67 26.5 67C33.2 67 34.6 67.8 38.6 70.8L47.7 80.4C54.2 87.4 63.5 91.4 73.1 91.4C82.7 91.4 91.9 87.4 98.5 80.4L107.6 70.8C111.6 67.8 113 67 119.7 67C126.4 67 132 67.6 136.5 68.8C138.6 69.4 140.8 68.9 142.6 67.6C144.3 66.3 145.3 64.2 145.3 62.1V44.2C145.1 23.5 145.1 0 100.9 0Z" fill="white"/>
</svg>
